<?xml version="1.0" encoding="UTF-8"?><svg id="Layer_1" xmlns="http://www.w3.org/2000/svg" viewBox="0 0 234.02 161.9"><defs><style>.cls-1{stroke-width:0px;}</style></defs><path class="cls-1" d="M158.65,0h-8.98c-.93,0-1.69.76-1.69,1.69v68.6c0,1.73-2.29,2.34-3.15.84L109.87,10.58c-.47-.81-1.5-1.08-2.31-.62l-5.1,2.94c-.81.47-1.08,1.5-.62,2.31l41.76,72.33c.86,1.5-.81,3.17-2.31,2.31l-74.55-43.04c-.81-.47-1.84-.19-2.31.62l-1.4,2.42c-.47.81-.19,1.84.62,2.31l76.6,44.23c1.5.86.88,3.15-.84,3.15H46.81c-.8,0-1.45.65-1.45,1.45v.19c0,.8.65,1.45,1.45,1.45h111.84c.93,0,1.69-.76,1.69-1.69V1.69c0-.93-.76-1.69-1.69-1.69Z"/><path class="cls-1" d="M19.61,138.71c.22-.45.5-.74.86-.89.36-.14.77-.1,1.23.11.95.43,1.21,1.13.77,2.09l-9.65,20.7c-.18.43-.43.74-.74.91-.31.17-.69.26-1.14.26-.83,0-1.42-.41-1.77-1.22L.19,139.98c-.41-1-.13-1.68.85-2.05.95-.43,1.63-.16,2.05.82l7.97,18.31"/><path class="cls-1" d="M38.31,151.08v1.62c0,2.28.45,3.86,1.33,4.74.89.88,2.48,1.32,4.78,1.32h4.09c1.98,0,3.42-.23,4.32-.7.9-.46,1.45-1.27,1.67-2.42.12-.5.3-.87.55-1.12s.62-.38,1.12-.38.91.14,1.18.41c.28.27.37.68.29,1.21-.27,2.08-1.15,3.62-2.66,4.62-1.5,1.01-3.66,1.51-6.47,1.51h-4.09c-3.18,0-5.51-.75-7.01-2.25-1.5-1.5-2.24-3.81-2.24-6.96v-5.69c0-3.22.75-5.58,2.24-7.07s3.83-2.21,7.01-2.18h4.09c3.19,0,5.53.74,7.02,2.23,1.49,1.49,2.23,3.83,2.23,7.02v2.49c0,1.05-.52,1.57-1.57,1.57h-17.88ZM44.42,140.9c-2.29-.03-3.89.39-4.78,1.27s-1.33,2.49-1.33,4.84v.92h16.31v-.92c0-2.31-.44-3.9-1.32-4.79s-2.48-1.32-4.79-1.32h-4.09Z"/><path class="cls-1" d="M76.29,161.9c-1.05,0-1.57-.53-1.57-1.57v-20.99c0-1.05.53-1.57,1.57-1.57s1.57.52,1.57,1.57v3.19c.91-1.55,2.17-2.73,3.77-3.54,1.6-.82,3.47-1.22,5.61-1.22,1.05,0,1.57.52,1.57,1.57s-.52,1.57-1.57,1.57c-2.93,0-5.18.63-6.77,1.87s-2.46,2.98-2.61,5.21v12.34c0,1.05-.52,1.57-1.57,1.57Z"/><path class="cls-1" d="M112.44,161.9c-3.14,0-5.45-.73-6.91-2.19s-2.19-3.75-2.19-6.86v-11.94h-2.79c-1.05,0-1.57-.52-1.57-1.57s.52-1.57,1.57-1.57h2.79v-4.79c0-1.05.52-1.57,1.57-1.57s1.57.52,1.57,1.57v4.79h6.08c1.05,0,1.57.52,1.57,1.57s-.53,1.57-1.57,1.57h-6.08v11.94c0,2.24.43,3.79,1.3,4.64s2.42,1.27,4.66,1.27c.55,0,.95.13,1.21.39.26.26.39.65.39,1.19,0,1.05-.53,1.57-1.6,1.57Z"/><path class="cls-1" d="M130.44,133.37c-1.3,0-1.94-.66-1.94-1.97v-1.25c0-1.28.65-1.92,1.94-1.92h1.22c1.25,0,1.87.64,1.87,1.92v1.25c0,1.31-.62,1.97-1.87,1.97h-1.22ZM131.04,161.9c-1.05,0-1.57-.53-1.57-1.57v-20.99c0-1.05.53-1.57,1.57-1.57s1.57.52,1.57,1.57v20.99c0,1.05-.52,1.57-1.57,1.57Z"/><path class="cls-1" d="M158.82,161.9c-3.18,0-5.51-.75-7.01-2.25-1.5-1.5-2.24-3.83-2.24-7.01v-5.68c0-3.19.74-5.53,2.23-7.02s3.83-2.21,7.02-2.18h4.09c2.46,0,4.36.41,5.69,1.23s2.14,2.11,2.44,3.88c.1.51,0,.92-.29,1.21-.29.29-.71.44-1.26.44-.48,0-.84-.13-1.07-.39s-.42-.61-.57-1.06c-.2-.8-.68-1.36-1.43-1.68-.76-.32-1.92-.49-3.5-.49h-4.09c-2.29-.03-3.89.39-4.78,1.26s-1.33,2.47-1.33,4.8v5.68c0,2.29.45,3.89,1.33,4.78.89.89,2.48,1.33,4.78,1.33h4.09c1.58,0,2.75-.16,3.5-.49.76-.32,1.23-.88,1.43-1.68.15-.48.34-.84.58-1.08s.6-.36,1.08-.36c.53,0,.94.14,1.23.42.29.28.39.69.29,1.22-.3,1.73-1.11,3.01-2.44,3.85-1.33.84-3.23,1.26-5.69,1.26h-4.09Z"/><path class="cls-1" d="M193.78,161.9c-2.64,0-4.6-.63-5.86-1.9-1.26-1.26-1.9-3.22-1.9-5.86s.63-4.62,1.9-5.88c1.26-1.26,3.22-1.89,5.86-1.89h11.09c-.07-2.05-.55-3.47-1.46-4.26-.91-.8-2.46-1.2-4.65-1.2h-2.89c-1.96,0-3.4.19-4.33.56-.92.37-1.52,1.02-1.78,1.93-.17.5-.37.86-.61,1.08-.24.22-.6.34-1.08.34-.51,0-.92-.15-1.21-.44s-.39-.69-.31-1.19c.31-1.89,1.24-3.27,2.77-4.14,1.53-.86,3.72-1.3,6.56-1.3h2.89c3.19,0,5.53.74,7.02,2.23,1.49,1.49,2.23,3.83,2.23,7.02v13.32c0,1.05-.52,1.57-1.57,1.57s-1.57-.53-1.57-1.57v-2.02c-1.64,2.39-4.41,3.59-8.3,3.59h-2.79ZM193.78,158.76h2.79c1.5,0,2.83-.16,4-.47,1.17-.31,2.14-.84,2.89-1.57.76-.73,1.23-1.72,1.41-2.97v-4.24h-11.09c-1.78,0-2.99.32-3.64.97-.65.65-.97,1.87-.97,3.66s.32,2.99.97,3.64,1.86.97,3.64.97Z"/><path class="cls-1" d="M232.43,161.9c-2.41,0-4.19-.58-5.35-1.73-1.16-1.16-1.73-2.93-1.73-5.32v-26.13c0-1.05.53-1.57,1.57-1.57s1.57.52,1.57,1.57v26.13c0,1.51.27,2.54.82,3.09.55.55,1.58.82,3.09.82,1.08,0,1.62.52,1.62,1.57.03,1.05-.5,1.57-1.6,1.57Z"/></svg>