<?xml version="1.0" encoding="UTF-8"?>
<svg width="402px" height="69px" viewBox="0 0 402 69" version="1.1" xmlns="http://www.w3.org/2000/svg" xmlns:xlink="http://www.w3.org/1999/xlink">
    <title>Group</title>
    <g id="🔨-Symbols" stroke="none" stroke-width="1" fill="none" fill-rule="evenodd">
        <g id="icons-/-logo-/-with-payoff" fill-rule="nonzero">
            <g id="Group">
                <g id="payoff_shape" transform="translate(81.676415, 50.520272)" fill="#000000">
                    <path d="M0.323585396,16.4702624 L0.323585396,3.48816486 L4.52073132,3.48816486 C6.07688919,3.40304403 7.59696444,3.96507983 8.70232103,5.03427458 C9.80767762,6.10346933 10.3942678,7.57917917 10.3159775,9.09381906 L10.3159775,10.8701419 C10.3980879,12.3853097 9.81252129,13.8626923 8.70609832,14.9318621 C7.59967534,16.0010318 6.07731823,16.5605992 4.52073132,16.4702624 L0.323585396,16.4702624 Z M2.13211169,4.84945897 L2.13211169,15.0979008 L4.52073132,15.0979008 C5.62790177,15.1498702 6.70000317,14.7126743 7.43825958,13.9081519 C8.17286674,13.0613773 8.55438577,11.977326 8.50745122,10.8701419 L8.50745122,9.07721792 C8.55008105,7.975684 8.1688248,6.89829902 7.43825958,6.05580903 C6.69892768,5.25333471 5.62697925,4.81823434 4.52073132,4.87159383 L2.13211169,4.84945897 Z" id="Shape"></path>
                    <path d="M20.4156269,10.3185018 L15.06753,10.3185018 L15.06753,15.0753305 L21.3235854,15.0753305 L21.3235854,16.4797276 L13.3235854,16.4797276 L13.3235854,3.19458438 L21.2239314,3.19458438 L21.2239314,4.61030723 L15.06753,4.61030723 L15.06753,8.90277892 L20.4045543,8.90277892 L20.4156269,10.3185018 Z M18.201094,-0.520272382 L20.2550733,-0.520272382 L20.2550733,-0.463643468 L17.8356961,1.90910803 L16.5180491,1.90910803 L18.201094,-0.520272382 Z" id="Shape"></path>
                    <polygon id="Path" points="32.4923261 13.0580922 32.7825202 14.1377344 32.8372738 14.1377344 33.1274679 13.0580922 36.4455366 3.47972762 38.3235854 3.47972762 33.5873982 16.4797276 32.0981001 16.4797276 27.3235854 3.49080087 29.2071095 3.49080087"></polygon>
                    <polygon id="Path" points="42.0593828 15.1054736 48.3235854 15.1054736 48.3235854 16.4797276 40.3235854 16.4797276 40.3235854 3.47972762 42.0593828 3.47972762"></polygon>
                    <path d="M60.3204891,11.1047092 C60.3669634,12.5252939 59.8578252,13.906868 58.9041777,14.9479476 C57.9542772,15.9696031 56.6167586,16.526614 55.2334381,16.4766307 C53.8878603,16.5226195 52.5909795,15.9631279 51.6900073,14.9479476 C50.767306,13.8913064 50.2793449,12.5156755 50.3267413,11.1047092 L50.3267413,8.86012875 C50.2815161,7.44950916 50.7691969,6.07466844 51.6900073,5.01689032 C52.5886838,3.99786044 53.8865998,3.43595065 55.2334381,3.48282456 C56.6167586,3.43284124 57.9542772,3.98985215 58.9041777,5.01150763 C59.859142,6.05392499 60.3683787,7.43770184 60.3204891,8.86012875 L60.3204891,11.1047092 Z M58.6336463,8.84398069 C58.6753283,7.81281987 58.3474319,6.80125267 57.7106569,5.99653933 C57.0976908,5.25895595 56.1835308,4.84976673 55.2334381,4.88770583 C54.322219,4.85604784 53.4509418,5.26810068 52.8888327,5.99653933 C52.2792036,6.81356783 51.9679716,7.81999749 52.0082795,8.84398069 L52.0082795,11.1047092 C51.9655764,12.1339861 52.2768652,13.1463081 52.8888327,13.9682986 C53.4492757,14.6988624 54.3216867,15.1114515 55.2334381,15.0771321 C56.1801973,15.1255366 57.096085,14.7283651 57.7159614,14.0005947 C58.3527207,13.1878151 58.6786239,12.1689389 58.6336463,11.1316226 L58.6336463,8.84398069 Z" id="Shape"></path>
                    <polygon id="Path" points="70.4205383 10.4507421 65.0742779 10.4507421 65.0742779 15.1054736 71.3235854 15.1054736 71.3235854 16.4797276 63.3235854 16.4797276 63.3235854 3.47972762 71.2294026 3.47972762 71.2294026 4.86506436 65.0742779 4.86506436 65.0742779 9.06540537 70.4149981 9.06540537"></polygon>
                    <path d="M76.0180792,10.8285737 L76.0180792,16.4520801 L74.3235854,16.4520801 L74.3235854,3.49092082 L78.5864628,3.49092082 C79.7056687,3.4125631 80.8155159,3.74749413 81.7196778,4.43646614 C82.4668784,5.13812114 82.8601554,6.15838364 82.7853971,7.20121855 C82.7986227,7.82278902 82.6213724,8.43267295 82.2791804,8.94301256 C81.9080468,9.46809103 81.4021152,9.87430088 80.8191449,10.1152676 C81.4265212,10.2837732 81.9534533,10.677154 82.3004948,11.2211685 C82.6158168,11.8103146 82.770555,12.4774549 82.7480969,13.1509657 L82.7480969,14.3729863 C82.741682,14.7459599 82.7847137,15.1180778 82.8759833,15.4788872 C82.9515345,15.7788833 83.1065997,16.0509008 83.3235854,16.2640769 L83.3235854,16.4797276 L81.5811342,16.4797276 C81.340777,16.2456112 81.1894897,15.9296659 81.1548465,15.5894773 C81.0902993,15.1893169 81.0582153,14.7842427 81.0589318,14.3785158 L81.0589318,13.1896723 C81.0859759,12.5665588 80.8731925,11.9578497 80.4674575,11.4976438 C80.0445597,11.0611437 79.4647536,10.8284991 78.8688785,10.8562212 L76.0180792,10.8285737 Z M76.0180792,9.4461975 L78.4266049,9.4461975 C79.1567929,9.51732369 79.8880069,9.32176091 80.4941005,8.89324702 C80.9427161,8.44533907 81.1735765,7.81191393 81.1228749,7.16804152 C81.1617116,6.53732646 80.9386865,5.91949822 80.5100863,5.47048354 C79.970254,5.02747212 79.2883124,4.81399009 78.6024486,4.87329702 L76.0180792,4.87329702 L76.0180792,9.4461975 Z" id="Shape"></path>
                    <polygon id="Path" points="89.257516 10.6058998 88.1041005 10.6058998 88.1041005 16.4797276 86.3235854 16.4797276 86.3235854 3.47972762 88.1041005 3.47972762 88.1041005 9.22610443 89.0783446 9.22610443 93.9495652 3.47972762 95.9484454 3.47972762 95.9484454 3.52405839 90.6236974 9.67495353 96.3235854 16.4353968 96.3235854 16.4797276 94.1679303 16.4797276"></polygon>
                    <polygon id="Path" points="100.059383 15.1054736 106.323585 15.1054736 106.323585 16.4797276 98.3235854 16.4797276 98.3235854 3.47972762 100.059383 3.47972762"></polygon>
                    <polygon id="Path" points="116.410722 10.4507421 111.082921 10.4507421 111.082921 15.1054736 117.323585 15.1054736 117.323585 16.4797276 109.323585 16.4797276 109.323585 3.47972762 117.224 3.47972762 117.224 4.86506436 111.082921 4.86506436 111.082921 9.06540537 116.410722 9.06540537"></polygon>
                    <path d="M119.323585,16.4705904 L119.323585,3.48785586 L123.523127,3.48785586 C125.079214,3.40436159 126.598608,3.96714709 127.703311,5.03620119 C128.808013,6.10525529 129.394183,7.58008741 129.315991,9.09378515 L129.315991,10.8701951 C129.397997,12.3844173 128.81285,13.8609155 127.707083,14.9299425 C126.601317,15.9989695 125.079645,16.5592911 123.523127,16.4705904 L119.323585,16.4705904 Z M121.127454,4.84921678 L121.127454,15.0981615 L123.523127,15.0981615 C124.63093,15.1501335 125.703643,14.7129161 126.442321,13.9083542 C127.177347,13.0615381 127.559084,11.9774335 127.512123,10.8701951 L127.512123,9.07718319 C127.554777,7.97559522 127.173303,6.89815737 126.442321,6.05562604 C125.702567,5.25311234 124.630007,4.81799062 123.523127,4.87135273 L121.127454,4.84921678 Z" id="Shape"></path>
                    <polygon id="Path" points="139.410722 10.4507421 134.082921 10.4507421 134.082921 15.1054736 140.323585 15.1054736 140.323585 16.4797276 132.323585 16.4797276 132.323585 3.47972762 140.251663 3.47972762 140.251663 4.86506436 134.110584 4.86506436 134.110584 9.06540537 139.438385 9.06540537"></polygon>
                    <polygon id="Path" points="153.323585 16.4797276 151.532036 16.4797276 145.18274 6.54963384 145.132036 6.54963384 145.132036 16.4631036 143.323585 16.4631036 143.323585 3.47972762 145.115135 3.47972762 151.475698 13.3987387 151.532036 13.3987387 151.532036 3.47972762 153.323585 3.47972762"></polygon>
                    <polygon id="Path" points="164.096997 11.9729133 164.317342 13.6781944 164.372429 13.6781944 164.669895 11.9618401 166.961485 3.47972762 168.674669 3.47972762 170.982785 11.9729133 171.285759 13.7114142 171.340846 13.7114142 171.577717 11.9729133 173.423108 3.49080087 175.323585 3.49080087 172.200192 16.4797276 170.635741 16.4797276 168.052194 7.466099 167.859391 6.29787072 167.804305 6.29787072 167.617012 7.466099 165.000412 16.4797276 163.435961 16.4797276 160.323585 3.49080087 162.213046 3.49080087"></polygon>
                    <polygon id="Path" points="184.411983 10.4507421 179.091541 10.4507421 179.091541 15.1054736 185.323585 15.1054736 185.323585 16.4797276 177.323585 16.4797276 177.323585 3.47972762 185.224138 3.47972762 185.224138 4.86506436 179.091541 4.86506436 179.091541 9.06540537 184.411983 9.06540537"></polygon>
                    <path d="M188.323585,16.4729232 L188.323585,3.48834603 L192.356785,3.48834603 C193.431281,3.42303603 194.496438,3.730302 195.388275,4.36284014 C196.143265,5.0014971 196.552838,5.98754312 196.484884,7.0029268 C196.489584,7.54704297 196.316536,8.07641986 195.994573,8.50285025 C195.651396,8.95555104 195.200329,9.30497465 194.687079,9.51571369 C195.442056,9.60524839 196.133225,10.0028364 196.611416,10.6226683 C197.082305,11.2427679 197.332174,12.0160131 197.317885,12.8089035 C197.377316,13.8477168 196.969444,14.8557039 196.216004,15.5320118 C195.353549,16.1998657 194.296887,16.5324589 193.226691,16.4729232 L188.323585,16.4729232 Z M189.994859,9.00651458 L192.704748,9.00651458 C193.260609,9.02795755 193.804038,8.83055316 194.228401,8.4530373 C194.628664,8.06875063 194.843478,7.51614037 194.81361,6.94757907 C194.855012,6.34743328 194.619726,5.762852 194.180952,5.37570358 C193.645322,4.99324205 193.003127,4.81008234 192.356785,4.85543493 L189.994859,4.85543493 L189.994859,9.00651458 Z M189.994859,10.3791383 L189.994859,15.1002995 L193.226691,15.1002995 C193.868372,15.1408394 194.501532,14.9297925 195.003408,14.5080788 C195.434823,14.0779186 195.665885,13.4714903 195.636067,12.847647 C195.66205,12.1994992 195.428865,11.5694379 194.992864,11.1097283 C194.517595,10.6501372 193.893937,10.3969509 193.24778,10.4012773 L189.994859,10.4012773 L189.994859,10.3791383 Z" id="Shape"></path>
                    <path d="M207.580997,13.0956185 C207.59089,12.5493986 207.363729,12.0252067 206.957113,11.6559597 C206.321602,11.163279 205.578426,10.8247714 204.787081,10.6675373 C203.681937,10.4387483 202.645612,9.95877084 201.759886,9.26548156 C201.057251,8.69582398 200.657336,7.83850204 200.67487,6.93946572 C200.660086,5.98250989 201.092588,5.07245892 201.846688,4.4737815 C202.705281,3.78742556 203.78782,3.43585136 204.890157,3.48535907 C206.067555,3.42641512 207.220528,3.83208221 208.096379,4.61344989 C208.852154,5.28330509 209.274317,6.24691311 209.251921,7.25103367 L209.251921,7.30475228 L207.624397,7.30475228 C207.644702,6.63193588 207.369658,5.98340131 206.870311,5.52666627 C206.342671,5.05061985 205.646791,4.79970398 204.933558,4.82832433 C204.247601,4.77879178 203.568955,4.99444437 203.040205,5.42997277 C202.613122,5.81324572 202.378827,6.36374712 202.400046,6.93409386 C202.396357,7.47705505 202.65938,7.98792365 203.105306,8.30391843 C203.794256,8.77315719 204.570672,9.10185982 205.389265,9.27085342 C206.475187,9.50076517 207.483666,10.0019074 208.318808,10.7266278 C208.976052,11.3406191 209.340593,12.2010796 209.322447,13.0956185 C209.34937,14.0592042 208.897282,14.9745846 208.112655,15.5451871 C207.19391,16.1983109 206.079649,16.5257142 204.949833,16.4745191 C203.782157,16.4900662 202.640583,16.1321138 201.694785,15.4538655 C200.78952,14.8377002 200.27197,13.8005514 200.327665,12.7142164 L200.327665,12.6658696 L201.955189,12.6658696 C201.921572,13.3893686 202.265808,14.0792024 202.866603,14.4923024 C203.461047,14.9231293 204.180675,15.1512266 204.917283,15.1422976 C205.60551,15.184034 206.287847,14.9947782 206.854036,14.6051115 C207.336653,14.2544852 207.609635,13.6876543 207.580997,13.0956185 Z" id="Path"></path>
                    <polygon id="Path" points="222.323585 16.4797276 220.540683 16.4797276 220.540683 10.7388922 214.112112 10.7388922 214.112112 16.4797276 212.323585 16.4797276 212.323585 3.47972762 214.112112 3.47972762 214.112112 9.35355541 220.518186 9.35355541 220.518186 3.47972762 222.301088 3.47972762"></polygon>
                    <path d="M235.320474,11.1047235 C235.368405,12.5245716 234.860956,13.9060637 233.90876,14.9480109 C232.957984,15.9690891 231.620071,16.5259924 230.236181,16.4767134 C228.889929,16.5227029 227.592399,15.9632041 226.690975,14.9480109 C225.765904,13.8925048 225.277414,12.5160559 225.327026,11.1047235 L225.327026,8.86011448 C225.27906,7.44904327 225.767336,6.0731957 226.690975,5.01682709 C227.590102,3.99778423 228.888668,3.43586729 230.236181,3.48274179 C231.620071,3.43346279 232.957984,3.99036616 233.90876,5.01144434 C234.858288,6.05721396 235.365204,7.43918676 235.320474,8.86011448 L235.320474,11.1047235 Z M233.638093,8.84396622 C233.679796,7.81279226 233.351735,6.80121217 232.714641,5.99648858 C232.101368,5.25889581 231.18675,4.84970138 230.236181,4.88764096 C229.323014,4.85600165 228.449702,5.26788367 227.885094,5.99648858 C227.277051,6.81424246 226.967559,7.82061942 227.009407,8.84396622 L227.009407,11.1047235 C226.965162,12.1333636 227.274711,13.145633 227.885094,13.9683494 C228.448045,14.6990721 229.322485,15.1114859 230.236181,15.077197 C231.183271,15.1247857 232.099279,14.7277558 232.719949,14.0006459 C233.357027,13.1878559 233.683093,12.1689668 233.638093,11.1316373 L233.638093,8.84396622 Z" id="Shape"></path>
                    <path d="M240.014177,11.2688848 L240.014177,16.4797276 L238.323585,16.4797276 L238.323585,3.48861461 L243.108278,3.48861461 C244.236687,3.41526767 245.348776,3.79808441 246.213012,4.55736347 C247.693776,6.12424904 247.693776,8.6387879 246.213012,10.2056735 C245.346629,10.9604369 244.23562,11.3409002 243.108278,11.2688848 L240.014177,11.2688848 Z M240.014177,9.89557017 L243.097646,9.89557017 C243.764976,9.97590608 244.432109,9.74351245 244.918784,9.26118206 C245.40546,8.77885168 245.661449,8.09636543 245.617584,7.39813114 C245.636608,6.7341688 245.410141,6.08794611 244.984941,5.59288697 C244.485855,5.07916737 243.797206,4.81649202 243.097646,4.87300432 L240.014177,4.87300432 L240.014177,9.89557017 Z" id="Shape"></path>
                    <polygon id="Path" points="259.512573 13.0662579 259.80176 14.1468205 259.856323 14.1468205 260.14551 13.0662579 263.452058 3.47972762 265.323585 3.47972762 260.565649 16.4797276 259.081522 16.4797276 254.323585 3.47972762 256.206026 3.47972762"></polygon>
                    <path d="M273.312822,13.132754 L268.334349,13.132754 L267.150341,16.4575622 L265.323585,16.4575622 L270.121638,3.47972762 L271.65521,3.47972762 L276.323585,16.4797276 L274.49683,16.4797276 L273.312822,13.132754 Z M268.847419,11.6587558 L272.794113,11.6587558 L270.87151,6.07861935 L270.815128,6.07861935 L268.847419,11.6587558 Z" id="Shape"></path>
                    <polygon id="Path" points="289.323585 16.4797276 287.522798 16.4797276 281.163765 6.54963384 281.107491 6.54963384 281.107491 16.4631036 279.323585 16.4631036 279.323585 3.47972762 281.107491 3.47972762 287.466523 13.3987387 287.522798 13.3987387 287.522798 3.47972762 289.323585 3.47972762"></polygon>
                    <polygon id="Path" points="307.323585 16.4797276 305.531026 16.4797276 299.166877 6.54963384 299.110508 6.54963384 299.110508 16.4631036 297.323585 16.4631036 297.323585 3.47972762 299.110508 3.47972762 305.480293 13.3987387 305.531026 13.3987387 305.531026 3.47972762 307.323585 3.47972762"></polygon>
                    <polygon id="Path" points="313.058196 15.1054736 319.323585 15.1054736 319.323585 16.4797276 311.323585 16.4797276 311.323585 3.47972762 313.058196 3.47972762"></polygon>
                </g>
                <g id="text_logo_shape" transform="translate(80.000000, 1.000000)">
                    <path d="M76.3037742,9.68025538 C74.6196123,6.77513154 72.210252,4.35839134 69.3120891,2.6671547 C67.8451963,1.81549029 66.2757385,1.15485774 64.6417759,0.701277661 C61.2531803,-0.23375922 57.6751786,-0.23375922 54.286583,0.701277661 C52.6571872,1.15793038 51.0917564,1.81842746 49.6272977,2.6671547 C48.1899465,3.50536723 46.868253,4.52827527 45.6958533,5.70984641 C44.5186563,6.89990936 43.4960214,8.23390427 42.6521545,9.68025538 C40.0175643,14.2344158 39.3107731,19.6545587 40.6891893,24.7335723 C41.1327975,26.3600647 41.7910878,27.9200199 42.6466405,29.3721585 C44.3486993,32.2528908 46.7523194,34.6543767 49.6328116,36.3521265 C51.0998451,37.2099983 52.6740202,37.8691987 54.3141528,38.3124814 C57.7070717,39.2291729 61.2819406,39.2291729 64.6748595,38.3124814 C66.3067516,37.8655461 67.8731674,37.2064899 69.3341449,36.3521265 C70.7750599,35.5049114 72.1033979,34.4788855 73.287645,33.2983905 C74.4693514,32.1286343 75.4926555,30.808619 76.3313439,29.3721585 C77.1829698,27.9147264 77.8445215,26.3539694 78.299823,24.7280501 C79.2333923,21.3325425 79.2333923,17.7474821 78.299823,14.3519744 C77.8415965,12.7183243 77.1802588,11.148796 76.3313439,9.68025538 M69.4223681,23.8831648 C68.9254074,25.202746 68.1762285,26.412589 67.2167892,27.4449364 C66.2559656,28.4642699 65.0985714,29.2777141 63.8146838,29.8360172 C61.053976,30.9916859 57.9460642,30.9916859 55.1853564,29.8360172 C53.9047075,29.2748111 52.7496653,28.4617021 51.788765,27.4449364 C50.8333116,26.4095453 50.0846409,25.200523 49.5831861,23.8831648 C49.0520264,22.4887682 48.7846421,21.0075463 48.7946916,19.5151627 C48.7880309,18.0271623 49.0533975,16.5505087 49.5776721,15.1582049 C50.0788219,13.8340945 50.82737,12.6177736 51.783251,11.5743448 C52.7396178,10.5622227 53.8864818,9.74959393 55.1577867,9.18326399 C57.9187901,8.01009093 61.0371385,8.01009093 63.7981419,9.18326399 C65.0826284,9.75290827 66.2396023,10.5754468 67.2002473,11.6019554 C68.1573228,12.6444793 68.9060204,13.8610432 69.4058262,15.1858155 C70.4569867,17.9988727 70.4569867,21.0977183 69.4058262,23.9107754" id="Shape" fill="#010101"></path>
                    <path d="M111.560621,38.9992171 C111.675243,39.0067743 111.786492,38.9592727 111.859173,38.8717402 C111.947223,38.7735775 111.997112,38.6479155 112,38.5170217 L112,31.5279591 C112,31.2951751 111.921137,31.223123 111.887339,31.1954106 C111.799885,31.1126363 111.681869,31.0685914 111.560621,31.0734761 L95.9514081,31.0734761 L95.9514081,1.42677067 C95.9459314,1.31471634 95.892771,1.21010541 95.8049485,1.13856191 C95.7106149,1.05045015 95.5857659,1.00091735 95.4556987,1 L87.4623845,1 C87.225796,1 87.1525662,1.07205219 87.1244009,1.10530705 C87.0397003,1.19099651 86.9948383,1.30736694 87.0004735,1.42677067 L87.0004735,38.5613615 C87.0004735,38.9327074 87.0624372,38.9881322 87.4342192,38.9881322 L111.560621,38.9992171 Z" id="Path" fill="#010101"></path>
                    <path d="M146.526519,31.3591859 L127.85467,31.3591859 L127.85467,23.0733576 L141.969964,23.0733576 C142.187208,23.0733576 142.242912,23.0123509 142.259623,22.9901666 C142.324068,22.9257661 142.365213,22.8418845 142.376601,22.7516856 L142.376601,17.0059573 C142.381344,16.9363845 142.37187,16.8665765 142.348749,16.8007527 C142.225319,16.7305638 142.083988,16.6977946 141.942112,16.7064696 L127.85467,16.7064696 L127.85467,8.63693806 L145.897069,8.63693806 C146.147735,8.63693806 146.209009,8.55374701 146.248001,8.51492452 C146.347894,8.40083598 146.404981,8.25580102 146.409542,8.10451536 L146.409542,1.5324227 C146.430222,1.37929221 146.385806,1.22451392 146.286994,1.10537533 C146.286994,1.07764498 146.186727,1 145.92492,1 L119.432285,1 C119.19833,1 119.137056,1.06655284 119.114774,1.08873712 C119.028597,1.20106367 118.988748,1.34191202 119.003367,1.48250807 L119.003367,38.5968069 C118.990647,38.7030718 119.01419,38.8105084 119.070211,38.9018407 C119.176369,38.9739031 119.304284,39.0072119 119.432285,38.9961239 L146.431823,38.9961239 C146.551671,39.008951 146.672789,38.9898098 146.782756,38.9406632 L146.816178,38.6966362 L147,38.4747934 L147,31.8195097 C147,31.3869162 146.910874,31.3425477 146.54323,31.3425477" id="Path" fill="#010101"></path>
                    <path d="M185.706373,38.9974633 C185.80799,39.0045401 185.909588,38.9834215 186,38.9364287 C185.990536,38.7374192 185.925252,38.545112 185.811636,38.3815685 C185.606651,38.0320065 185.440447,37.7212848 185.313024,37.4605005 L178.16072,23.9773968 L178.781214,23.6167376 C179.685712,23.0957085 180.524566,22.4679343 181.279812,21.7468586 C182.808945,20.2878127 183.93012,18.453313 184.531866,16.425749 C184.841404,15.3775037 184.996318,14.2895788 184.991697,13.1964624 C185.000481,11.5731817 184.674175,9.96560198 184.033255,8.47460183 C183.408599,7.02252229 182.511494,5.7040015 181.390614,4.59058019 C180.251521,3.47459353 178.913531,2.58249069 177.446043,1.96054267 C175.915631,1.31511057 174.270032,0.988507795 172.609512,1.00030875 L155.435118,1.00030875 C155.340936,1.00030875 155.174732,1.00030875 155.11379,1.0783149 C155.031043,1.19636185 154.99187,1.33955997 155.002988,1.48336287 L155.002988,38.597964 C154.991187,38.7042348 155.014543,38.8114471 155.069469,38.9031371 C155.176564,38.9764901 155.305967,39.0098722 155.435118,38.9974633 L163.324259,38.9974633 C163.80625,38.9974633 163.80625,38.8753941 163.80625,38.597964 L163.80625,25.8361786 L169.290976,25.8361786 L176.038851,38.5868667 C176.060591,38.7029658 176.126043,38.8062597 176.221675,38.8753941 C176.326499,38.9598769 176.458439,39.0032667 176.592864,38.9974633 L185.706373,38.9974633 Z M175.518079,15.1717649 C175.317001,15.7720962 175.017423,16.3346641 174.631659,16.8363456 C174.229642,17.3474725 173.7354,17.7784788 173.174605,18.1069755 C172.572508,18.4608279 171.902042,18.6821365 171.20786,18.756162 C170.897613,18.7894536 170.615067,18.8171966 170.354681,18.8338424 C170.094295,18.8504882 169.800668,18.867134 169.45164,18.867134 L163.828411,18.867134 L163.828411,7.64231147 L168.260512,7.64231147 C168.786825,7.64231147 169.274356,7.64231147 169.723106,7.68115169 L171.124758,7.78102653 C171.820535,7.87277462 172.490008,8.10697641 173.091503,8.46905322 C173.651977,8.80927166 174.148818,9.2449079 174.559637,9.75632897 C174.961613,10.2563782 175.279706,10.8185781 175.501459,11.4209097 C175.720936,12.0123251 175.835313,12.6376639 175.839407,13.2685943 C175.837958,13.9114208 175.735121,14.5499825 175.5347,15.1606677" id="Shape" fill="#010101"></path>
                    <path d="M227.329418,9.68030246 C225.64404,6.77518328 223.232941,4.35844696 220.332686,2.66721304 C218.864734,1.81555 217.294144,1.1549185 215.659002,0.701339156 C212.269844,-0.233779719 208.691009,-0.233779719 205.301852,0.701339156 C203.67093,1.15698627 202.104246,1.8175344 200.639204,2.66721304 C199.200815,3.50542422 197.878167,4.52833062 196.704921,5.70989987 C194.316197,8.10947685 192.588302,11.0866044 191.689126,14.352014 C190.770291,17.7514565 190.770291,21.3341527 191.689126,24.7335952 C192.134918,26.3603191 192.795538,27.9202674 193.653508,29.372174 C195.352566,32.2543129 197.756569,34.6563406 200.639204,36.3521307 C202.099106,37.2068485 203.664878,37.8659375 205.296334,38.3124825 C208.691702,39.2291725 212.269151,39.2291725 215.664519,38.3124825 C217.297881,37.8663925 218.865535,37.207292 220.327168,36.3521307 C221.769913,35.5036043 223.100879,34.4777228 224.28904,33.2983997 C225.469993,32.1272201 226.493864,30.807428 227.334936,29.372174 C228.183165,27.9134164 228.843219,26.3529477 229.299318,24.7280731 C230.233561,21.3325708 230.233561,17.7475162 229.299318,14.352014 C228.84076,12.7183665 228.178945,11.1488407 227.329418,9.68030246 M220.443044,23.8831891 C219.94598,25.2028939 219.196231,26.4127819 218.235874,27.4449549 C217.271341,28.4632746 216.111536,29.2765062 214.825795,29.8360319 C212.063094,30.9916987 208.952939,30.9916987 206.190238,29.8360319 C204.911153,29.273273 203.757375,28.4603214 202.796713,27.4449549 C201.838705,26.4109877 201.089257,25.2015855 200.589542,23.8831891 C199.537623,21.0701364 199.537623,17.9712958 200.589542,15.1582432 C201.088845,13.8330482 201.838179,12.6163296 202.796713,11.5743888 C203.751735,10.5599222 204.899929,9.74693949 206.173685,9.18331187 C208.934306,8.00788285 212.054137,8.00788285 214.814759,9.18331187 C216.100998,9.75150039 217.259081,10.5742321 218.21932,11.6019994 C219.178959,12.6431016 219.928434,13.8600472 220.426491,15.1858538 C221.47841,17.9989064 221.47841,21.097747 220.426491,23.9107996" id="Shape" fill="#010101"></path>
                    <path d="M287.961578,38.9082285 C287.961578,38.9082285 288,38.8305857 288,38.7030296 L288,1.42893736 C288,1.2181926 287.934134,1.16827937 287.895713,1.13500388 C287.764559,1.03688707 287.602881,0.989650269 287.440142,1.00190193 L279.92048,1.00190193 C279.822189,0.997373528 279.725924,1.03111901 279.651529,1.09618248 C279.572345,1.16601692 279.5167,1.2590763 279.492353,1.36238638 L279.492353,25.165452 L278.142108,22.9470861 C275.906335,19.3237552 273.690687,15.7466403 271.495166,12.2157413 C269.299644,8.68484234 267.085826,5.10403012 264.853712,1.47330468 C264.7643,1.32229485 264.635068,1.19939924 264.480474,1.11836614 C264.341666,1.04414634 264.187421,1.00423359 264.030392,1.00190193 L255.423947,1.00190193 C255.314171,1.00190193 255.171462,1.00190193 255.116574,1.08509065 C255.035315,1.18017383 254.993963,1.30353061 255.001309,1.42893736 L255.001309,38.5865654 C254.99235,38.7086151 255.029629,38.8295442 255.105596,38.9248662 C255.105596,38.9525958 255.215372,38.9914172 255.423947,38.9914172 L262.899698,38.9914172 C263.041587,39.0055992 263.184761,38.9846611 263.316847,38.9304121 C263.364363,38.8146587 263.385016,38.6894491 263.377224,38.5643818 L263.377224,13.0975417 L264.732959,15.3491831 C267.082167,19.2498097 269.398442,23.1042204 271.681785,26.9124151 L278.597678,38.4756471 C278.721039,38.6462663 278.860766,38.804166 279.014827,38.9470499 L287.522474,38.9969631 C287.667184,39.0103219 287.812527,38.9794052 287.939623,38.9082285" id="Path" fill="#010101"></path>
                    <path d="M321.556821,38.9988082 C321.671814,39.0083204 321.783986,38.9604404 321.855468,38.8713327 C321.943545,38.773171 321.99345,38.6475104 321.996339,38.516618 L321.996339,31.5276307 C322.012742,31.4066347 321.973498,31.2847401 321.889277,31.1950857 C321.799043,31.113067 321.679621,31.0692671 321.556821,31.0731525 L305.953924,31.0731525 L305.953924,1.42676608 C305.950628,1.31416247 305.897025,1.2087161 305.807418,1.13856042 C305.713054,1.05044961 305.588166,1.00091734 305.458057,1 L297.467841,1 C297.225543,1 297.157924,1.07205142 297.124115,1.10530592 C297.041591,1.1923586 296.997081,1.30778005 297,1.42676608 L297,38.5609573 C297,38.9322992 297.062132,38.9877234 297.439667,38.9877234 L321.556821,38.9988082 Z" id="Path" fill="#010101"></path>
                    <path d="M244,34.4999376 C244,36.3205157 242.902996,37.9617187 241.220778,38.6578835 C239.53856,39.3540484 237.602607,38.9679946 236.31609,37.679826 C235.029574,36.3916575 234.646004,34.4552102 235.344326,32.7738862 C236.042648,31.0925623 237.685257,29.9976697 239.505833,30 C240.698759,30 241.842743,30.4742856 242.685728,31.3183532 C243.528713,32.1624207 244.001528,33.3070118 244,34.4999376" id="Path" fill="#1D1D1B"></path>
                    <path d="M22.5448964,36.9114003 L36,1.15196588 C36,1.0562621 35.9060629,1.0055954 35.618726,1.0055954 L27.4019954,1.0055954 C27.0544495,0.960891743 26.7290898,1.18832982 26.6449731,1.53478098 C25.9376823,3.53893064 25.25802,5.54495685 24.6059862,7.5528596 C23.9539524,9.56076235 23.3111282,11.5742947 22.6775134,13.5934568 C22.0438987,15.620125 21.3992325,17.639287 20.743515,19.6509428 C20.0877974,21.6625986 19.4044513,23.6836372 18.6934766,25.7140585 L17.9861857,27.7125785 L9.36607828,1.51226245 C9.30259209,1.19440535 9.01453314,0.976116983 8.69746738,1.0055954 L0.292862625,1.0055954 C0.193663445,0.999443724 0.0942300405,1.01282343 0,1.04500283 C0.0742531182,1.10782099 0.118512679,1.20005456 0.121565618,1.29833636 L13.466155,36.8945114 C13.5987721,37.2322894 13.7369148,37.5644378 13.8805833,37.8909566 C14.0172899,38.2033345 14.1741965,38.5061236 14.3502686,38.7973276 L14.3834229,38.8592536 C14.3834229,38.8930314 14.4497314,39 14.7978511,39 L21.2463546,39 C21.3347063,39.0005015 21.4198342,38.9662133 21.4839601,38.9042907 C21.6413561,38.7717454 21.774222,38.6115955 21.8762855,38.4314014 C22.0204407,38.1989376 22.1443222,37.95405 22.2465081,37.699549 C22.362548,37.4124377 22.4620107,37.1365856 22.5448964,36.9114003" id="Path" fill="#010101"></path>
                </g>
                <g fill="#5C8E7C" id="Layer_4">
                    <path d="M34.5446038,-1.97689277e-15 C21.9797468,-0.0185995406 10.398674,6.79782115 4.31412995,17.7931762 C-1.77041408,28.7885313 -1.39581883,42.2232912 5.29194884,52.8623935 L17.8208532,52.8623935 C9.22337526,45.0730257 7.33093786,32.291182 13.3024022,22.344008 C19.2738665,12.396834 31.4432093,8.05956584 42.3583586,11.988192 C53.273508,15.9168182 59.889165,27.015262 58.1541372,38.487232 C56.4191094,49.9592019 46.8174651,58.6040477 35.228909,59.1279737 L35.228909,59.155796 L10.3769482,59.155796 C21.4979342,70.0418338 38.5293303,72.1326053 51.9523461,64.2595854 C65.375362,56.3865654 71.8659409,40.4994177 67.7965201,25.4774157 C63.7270993,10.4554137 50.1054244,0.018585006 34.5446038,-1.97689277e-15 L34.5446038,-1.97689277e-15 Z" id="Path"></path>
                    <path d="M52.1306902,34.8724993 C52.1306902,27.6047625 47.7532018,21.0527585 41.039682,18.2720361 C34.3261622,15.4913137 26.5989165,17.0295686 21.4615715,22.1694304 C16.3242266,27.3092923 14.7886422,35.0384055 17.5709433,41.7522726 C20.3532443,48.4661397 26.9054242,52.8423864 34.1718522,52.8401365 C44.0873306,52.8278661 52.1214941,44.7897665 52.1306902,34.8724993 Z M33.815791,38.7676202 C32.1051268,38.7676202 30.563011,37.7366557 29.9088891,36.1557077 C29.2547673,34.5747598 29.6175373,32.7553607 30.8279556,31.5463174 C32.0383739,30.3372741 33.8579215,29.9768346 35.4377221,30.6331553 C37.0175228,31.2894759 38.0462689,32.8332255 38.0440217,34.5441962 C38.0317639,36.8702044 36.1414106,38.7484593 33.815791,38.7453624 L33.815791,38.7676202 Z" id="Shape"></path>
                </g>
            </g>
        </g>
    </g>
</svg>